<?xml version="1.0" encoding="UTF-8" standalone="no"?>
<!-- Created with Inkscape (http://www.inkscape.org/) -->

<svg
   xmlns:dc="http://purl.org/dc/elements/1.1/"
   xmlns:cc="http://creativecommons.org/ns#"
   xmlns:rdf="http://www.w3.org/1999/02/22-rdf-syntax-ns#"
   xmlns:svg="http://www.w3.org/2000/svg"
   xmlns="http://www.w3.org/2000/svg"
   xmlns:sodipodi="http://sodipodi.sourceforge.net/DTD/sodipodi-0.dtd"
   xmlns:inkscape="http://www.inkscape.org/namespaces/inkscape"
   width="986.4"
   height="1967.9"
   version="1.1"
   viewBox="0 0 986.40363 1967.8926"
   xml:space="preserve"
   id="svg1468"
   sodipodi:docname="iphone-x.svg"
   inkscape:version="0.92.3 (2405546, 2018-03-11)"><defs
     id="defs1472" /><sodipodi:namedview
     pagecolor="#ffffff"
     bordercolor="#666666"
     borderopacity="1"
     objecttolerance="10"
     gridtolerance="10"
     guidetolerance="10"
     inkscape:pageopacity="0"
     inkscape:pageshadow="2"
     inkscape:window-width="1339"
     inkscape:window-height="873"
     id="namedview1470"
     showgrid="false"
     inkscape:zoom="0.95939833"
     inkscape:cx="663.01814"
     inkscape:cy="-64.450266"
     inkscape:window-x="0"
     inkscape:window-y="27"
     inkscape:window-maximized="0"
     inkscape:current-layer="svg1468" /><metadata
     id="metadata1460"><rdf:RDF><cc:Work
         rdf:about=""><dc:format>image/svg+xml</dc:format><dc:type
           rdf:resource="http://purl.org/dc/dcmitype/StillImage" /><dc:title /></cc:Work></rdf:RDF></metadata><g
     transform="matrix(1.3333 0 0 -1.3333 -562.55 2184.6)"
     id="g1466"><g
       transform="scale(.10052)"
       fill="#fff"
       id="g1464"><path
         d="m 11071.5,2732.82 c 0,-373.07 -303.4,-676.49 -676.5,-676.49 H 5359.4 c -372.96,0 -676.48,303.42 -676.48,676.49 v 12451 c 0,373.1 303.52,676.5 676.48,676.5 h 656.99 c 54.32,0 98.39,-44.1 98.39,-98.4 v -57.1 c 0,-24.1 2.49,-47.7 7.17,-70.3 32.53,-159.4 173.49,-279.4 342.52,-279.4 h 2825.5 c 169.03,0 309.99,120 342.52,279.4 4.68,22.6 7.17,46.2 7.17,70.3 v 57.1 c 0,54.3 44.07,98.4 98.39,98.4 h 656.88 c 373.1,0 676.5,-303.4 676.5,-676.5 z m -676.4,13446 H 5359.4 c -549.44,0 -994.83,-445.4 -994.83,-994.8 v -12451 c 0,-549.45 445.39,-994.84 994.83,-994.84 h 5035.7 c 549.4,0 994.9,445.39 994.9,994.84 v 12451 c 0,549.4 -445.5,994.8 -994.9,994.8 z m 1122.3,-4938.8 -33.1,-34 c -3.6,-3.7 -5.6,-8.7 -5.6,-13.9 v -8481 c 0,-581.49 -473.1,-1054.5 -1054.5,-1054.5 H 5330.4 c -581.48,0 -1054.5,473.04 -1054.5,1054.5 v 8132.5 c 0,6.2 -2.86,12 -7.75,15.8 l -30.95,23.9 v 1012.6 l 30.95,23.9 c 4.89,3.8 7.75,9.6 7.75,15.7 v 251.1 c 0,6.2 -2.86,12 -7.75,15.8 l -30.95,23.9 v 1012.7 l 30.95,23.8 c 4.89,3.8 7.75,9.6 7.75,15.8 v 454.9 c 0,11 -8.91,19.9 -19.9,19.9 h -18.8 v 547.8 h 18.8 c 10.99,0 19.9,8.9 19.9,19.9 v 884.4 c 0,581.5 473.05,1054.5 1054.5,1054.5 h 5093.8 c 581.4,0 1054.5,-473 1054.5,-1054.5 v -2274.9 c 0,-5.2 2,-10.2 5.6,-13.9 l 33.1,-34 z m 34.1,1664.7 -33,34 v 2266.8 c 0,603.4 -490.9,1094.3 -1094.3,1094.3 H 5330.4 c -603.41,0 -1094.3,-490.9 -1094.3,-1094.3 v -864.5 c -21.43,-0.6 -38.7,-18.3 -38.7,-39.8 v -547.8 c 0,-21.6 17.27,-39.2 38.7,-39.8 v -425.2 l -30.95,-23.9 c -4.88,-3.8 -7.75,-9.6 -7.75,-15.8 v -1032.2 c 0,-6.2 2.87,-12 7.75,-15.8 l 30.95,-23.8 v -231.6 l -30.95,-23.8 c -4.88,-3.8 -7.75,-9.6 -7.75,-15.8 v -1032.2 c 0,-6.2 2.87,-12 7.75,-15.8 l 30.95,-23.9 v -8122.7 c 0,-603.37 490.92,-1094.3 1094.3,-1094.3 h 5093.8 c 603.4,0 1094.3,490.95 1094.3,1094.3 v 8472.9 l 33,34 c 3.6,3.7 5.7,8.7 5.7,13.9 v 1658.9 c 0,5.2 -2.1,10.1 -5.7,13.9"
         id="path1462"
         inkscape:connector-curvature="0"
         style="fill:#000"
         sodipodi:nodetypes="csssssssscsscssssccsssssssssccssssssccccssccccsssccssssssscccccsssscsscccssccccssccssssccssc" /></g></g></svg>
